# File created by Blade
# Date/Time:  Thu Jan 22 16:05:08 2015
#---------------------------------------------------------
:version 1.10
:name HOM
:units
  mass 1.0
  length 1.000000
  angle deg
:documentation
     Acclaim Skeleton File
:root
   axis xyz
   order TX TY TZ RX RY RZ
   position 0.000000 0.000000 0.000000
   orientation 0 0 0
:bonedata
   begin
      id 1
      name RightUpLeg_dum
      direction -1.000000 0.000000 0.000000
      length 3.766986
      axis 0.0 0.0 0.0 xyz
   end
   begin
      id 2
      name LeftUpLeg_dum
      direction 1.000000 0.000000 0.000000
      length 3.766986
      axis 0.0 0.0 0.0 xyz
   end
   begin
      id 3
      name Spine_dum
      direction 0.000000 1.000000 0.000000
      length 7.779697
      axis 0.0 0.0 0.0 xyz
   end
   begin
      id 4
      name RightUpLeg
      direction 0.000000 -1.000000 0.000000
      length 18.017682
      axis 0.0 0.0 0.0 xyz
      dof rx ry rz
   end
   begin
      id 5
      name RightLeg
      direction 0.000000 -1.000000 0.000000
      length 16.881075
      axis 0.0 0.0 0.0 xyz
      dof rx ry rz
   end
   begin
      id 6
      name RightFoot
      direction 0.000000 -0.258819 0.965926
      length 5.770812
      axis 15.0 0.0 0.0 xyz
      dof rx ry rz
   end
   begin
      id 7
      name RightToeBase
      direction 0.000000 0.000000 1.000000
      length 2.952750
      axis 0.0 0.0 0.0 xyz
      dof rx ry rz
   end
   begin
      id 8
      name LeftUpLeg
      direction 0.000000 -1.000000 0.000000
      length 18.017682
      axis 0.0 0.0 0.0 xyz
      dof rx ry rz
   end
   begin
      id 9
      name LeftLeg
      direction 0.000000 -1.000000 0.000000
      length 16.881075
      axis 0.0 0.0 0.0 xyz
      dof rx ry rz
   end
   begin
      id 10
      name LeftFoot
      direction 0.000000 -0.258819 0.965926
      length 5.770812
      axis 15.0 0.0 0.0 xyz
      dof rx ry rz
   end
   begin
      id 11
      name LeftToeBase
      direction 0.000000 0.000000 1.000000
      length 2.952750
      axis 0.0 0.0 0.0 xyz
      dof rx ry rz
   end
   begin
      id 12
      name Spine
      direction 0.000000 1.000000 0.000000
      length 0.000000
      axis 0.0 0.0 0.0 xyz
      dof rx ry rz
   end
   begin
      id 13
      name Spine_dum1
      direction 0.000000 1.000000 0.000000
      length 10.941760
      axis 0.0 0.0 0.0 xyz
   end
   begin
      id 14
      name Spine_dum2
      direction 0.000000 1.000000 0.000000
      length 10.941760
      axis 0.0 0.0 0.0 xyz
   end
   begin
      id 15
      name Spine_dum3
      direction 0.000000 1.000000 0.000000
      length 16.646042
      axis 0.0 0.0 0.0 xyz
   end
   begin
      id 16
      name RightShoulder
      direction -1.000000 0.000000 0.000000
      length 7.708937
      axis 0.0 0.0 90.0 xyz
      dof rx ry rz
   end
   begin
      id 17
      name RightArm
      direction -1.000000 0.000000 0.000000
      length 11.521345
      axis 0.0 0.0 90.0 xyz
      dof rx ry rz
   end
   begin
      id 18
      name RightForeArm
      direction -1.000000 0.000000 0.000000
      length 10.175898
      axis 0.0 0.0 90.0 xyz
      dof ry rz rx
   end
   begin
      id 19
      name RightHand
      direction -1.000000 0.000000 0.000000
      length 0.000000
      axis 0.0 0.0 90.0 xyz
      dof rx ry rz
   end
   begin
      id 20
      name RightHand_dum1
      direction -1.000000 0.000000 0.000000
      length 3.937000
      axis 0.0 0.0 90.0 xyz
   end
   begin
      id 21
      name RightHand_dum2
      direction 0.000000 0.000000 0.000000
      length 0.000000
      axis 0.0 0.0 90.0 xyz
   end
   begin
      id 22
      name RightHandThumb1
      direction 0.000000 0.000000 1.000000
      length 3.937000
      axis 0.0 0.0 90.0 xyz
      dof rx rz ry
   end
   begin
      id 23
      name LeftShoulder
      direction 1.000000 0.000000 0.000000
      length 7.708937
      axis 0.0 0.0 -90.0 xyz
      dof rx ry rz
   end
   begin
      id 24
      name LeftArm
      direction 1.000000 0.000000 0.000000
      length 11.521345
      axis 0.0 0.0 -90.0 xyz
      dof rx ry rz
   end
   begin
      id 25
      name LeftForeArm
      direction 1.000000 0.000000 0.000000
      length 10.175898
      axis 0.0 0.0 -90.0 xyz
      dof ry rz rx
   end
   begin
      id 26
      name LeftHand
      direction 1.000000 0.000000 0.000000
      length 0.000000
      axis 0.0 0.0 -90.0 xyz
      dof rx ry rz
   end
   begin
      id 27
      name LeftHand_dum1
      direction 1.000000 0.000000 0.000000
      length 3.937000
      axis 0.0 0.0 -90.0 xyz
   end
   begin
      id 28
      name LeftHand_dum2
      direction 0.000000 0.000000 0.000000
      length 0.000000
      axis 0.0 0.0 -90.0 xyz
   end
   begin
      id 29
      name LeftHandThumb1
      direction 0.000000 0.000000 1.000000
      length 3.937000
      axis 0.0 0.0 -90.0 xyz
      dof rx rz ry
   end
   begin
      id 30
      name Head
      direction 0.000000 1.000000 0.000000
      length 4.527550
      axis 0.0 0.0 0.0 xyz
      dof rx ry rz
   end
:hierarchy
   begin
      root RightUpLeg_dum LeftUpLeg_dum Spine_dum
      RightUpLeg_dum RightUpLeg
      LeftUpLeg_dum LeftUpLeg
      Spine_dum Spine
      RightUpLeg RightLeg
      RightLeg RightFoot
      RightFoot RightToeBase
      LeftUpLeg LeftLeg
      LeftLeg LeftFoot
      LeftFoot LeftToeBase
      Spine Spine_dum1 Spine_dum2 Spine_dum3
      Spine_dum1 RightShoulder
      Spine_dum2 LeftShoulder
      Spine_dum3 Head
      RightShoulder RightArm
      RightArm RightForeArm
      RightForeArm RightHand
      RightHand RightHand_dum1 RightHand_dum2
      RightHand_dum2 RightHandThumb1
      LeftShoulder LeftArm
      LeftArm LeftForeArm
      LeftForeArm LeftHand
      LeftHand LeftHand_dum1 LeftHand_dum2
      LeftHand_dum2 LeftHandThumb1
   end

# File created by Blade
# Date/Time:  Thu Jan 22 16:04:59 2015
# Frame Rate: 120.000 fps
#------------------------------------------------------
:FULLY-SPECIFIED
:DEGREES
287
root 1.970480 36.642370 5.129720 16.357367 -66.125645 -20.386250
RightUpLeg -6.917613 27.495875 2.931625
RightLeg 2.612941 -0.000000 -0.000000
RightFoot 4.243620 11.913945 20.159929
RightToeBase 15.332689 -0.000000 -0.000000
LeftUpLeg 23.058033 31.888747 17.967616
LeftLeg 0.828836 -0.000000 -0.000000
LeftFoot -23.805433 30.099122 -32.708523
LeftToeBase 7.501176 -0.000000 -0.000000
Spine 16.883931 -50.034417 -20.711498
RightShoulder -11.370582 -31.540443 -21.675305
RightArm -8.912997 9.770297 64.188309
RightForeArm 23.531374 -0.000000 13.130909
RightHand 2.529291 -0.000000 -12.482350
RightHandThumb1 -24.326973 -0.000000 -32.862282
LeftShoulder -1.163676 22.051530 31.426657
LeftArm 94.167778 -4.065986 -44.274183
LeftForeArm 40.128517 -0.000000 31.911990
LeftHand -10.029430 -0.000000 -6.874672
LeftHandThumb1 -26.253704 0.000000 33.147579
Head 33.400988 44.714269 30.504931
288
root 1.969030 36.641720 5.138456 16.431008 -66.151624 -20.438198
RightUpLeg -6.950560 27.488540 2.926846
RightLeg 2.633693 -0.000000 -0.000000
RightFoot 4.241976 11.946856 20.152995
RightToeBase 15.296481 -0.000000 -0.000000
LeftUpLeg 23.020422 31.879353 17.939536
LeftLeg 0.867369 -0.000000 -0.000000
LeftFoot -23.863683 30.128189 -32.740287
LeftToeBase 7.517011 -0.000000 -0.000000
Spine 16.915140 -50.011457 -20.704586
RightShoulder -11.284317 -31.545977 -21.713653
RightArm -8.861937 9.607535 64.284569
RightForeArm 23.624241 -0.000000 13.107844
RightHand 2.501456 -0.000000 -12.513358
RightHandThumb1 -24.326973 -0.000000 -32.862282
LeftShoulder -1.081514 21.941014 31.485309
LeftArm 94.380992 -3.957920 -44.064195
LeftForeArm 40.179517 -0.000000 31.938982
LeftHand -10.070829 -0.000000 -6.913792
LeftHandThumb1 -26.253704 0.000000 33.147579
Head 33.393296 44.753376 30.499570
289
root 1.967578 36.641338 5.147714 16.493882 -66.178206 -20.474728
RightUpLeg -6.984973 27.495991 2.912876
RightLeg 2.651804 -0.000000 -0.000000
RightFoot 4.235076 11.967838 20.162561
RightToeBase 15.293313 -0.000000 -0.000000
LeftUpLeg 22.970208 31.847875 17.891619
LeftLeg 0.911769 -0.000000 -0.000000
LeftFoot -23.913733 30.193112 -32.753589
LeftToeBase 7.480340 -0.000000 -0.000000
Spine 16.924560 -49.967701 -20.678714
RightShoulder -11.225443 -31.595526 -21.711115
RightArm -8.818784 9.604450 64.359051
RightForeArm 23.574509 -0.000000 13.153495
RightHand 2.434294 -0.000000 -12.482652
RightHandThumb1 -24.326973 -0.000000 -32.862282
LeftShoulder -0.987830 21.852465 31.553741
LeftArm 94.617135 -3.866470 -43.882498
LeftForeArm 40.193329 -0.000000 31.933119
LeftHand -9.987098 -0.000000 -6.851637
LeftHandThumb1 -26.253704 0.000000 33.147579
Head 33.379238 44.789547 30.489285
290
root 1.966085 36.641174 5.157148 16.560564 -66.202967 -20.512793
RightUpLeg -7.022243 27.502161 2.899846
RightLeg 2.671806 -0.000000 -0.000000
RightFoot 4.226377 11.978385 20.169872
RightToeBase 15.338187 -0.000000 -0.000000
LeftUpLeg 22.909646 31.813649 17.842886
LeftLeg 0.970448 -0.000000 -0.000000
LeftFoot -23.981613 30.247076 -32.794712
LeftToeBase 7.432175 -0.000000 -0.000000
Spine 16.923163 -49.933797 -20.638278
RightShoulder -11.164755 -31.556512 -21.722669
RightArm -8.859083 9.583923 64.407172
RightForeArm 23.544323 -0.000000 13.213805
RightHand 2.438078 -0.000000 -12.494056
RightHandThumb1 -24.326973 -0.000000 -32.862282
LeftShoulder -0.887415 21.732528 31.607645
LeftArm 94.817827 -3.788769 -43.694515
LeftForeArm 40.136516 -0.000000 31.937533
LeftHand -9.906118 -0.000000 -6.939007
LeftHandThumb1 -26.253704 0.000000 33.147579
Head 33.371778 44.830717 30.462735
291
root 1.964395 36.641320 5.165319 16.636160 -66.231730 -20.568718
RightUpLeg -7.051183 27.523880 2.899343
RightLeg 2.691155 -0.000000 -0.000000
RightFoot 4.225319 11.976446 20.136207
RightToeBase 15.248046 -0.000000 -0.000000
LeftUpLeg 22.875820 31.810899 17.826137
LeftLeg 1.015652 -0.000000 -0.000000
LeftFoot -23.990137 30.269878 -32.779176
LeftToeBase 7.378663 -0.000000 -0.000000
Spine 16.942465 -49.907864 -20.611201
RightShoulder -11.101578 -31.596632 -21.722266
RightArm -8.805777 9.648067 64.483596
RightForeArm 23.581088 -0.000000 13.254732
RightHand 2.523414 0.000000 -12.603761
RightHandThumb1 -24.326973 -0.000000 -32.862282
LeftShoulder -0.841260 21.648896 31.645282
LeftArm 95.045563 -3.726590 -43.436603
LeftForeArm 40.013482 -0.000000 31.943489
LeftHand -10.000212 -0.000000 -7.010332
LeftHandThumb1 -26.253704 0.000000 33.147579
Head 33.346205 44.885605 30.443676
292
root 1.961979 36.641638 5.173955 16.719101 -66.254559 -20.629329
RightUpLeg -7.076151 27.548114 2.900602
RightLeg 2.698380 -0.000000 -0.000000
RightFoot 4.220932 11.962596 20.148645
RightToeBase 15.207985 -0.000000 -0.000000
LeftUpLeg 22.839474 31.788516 17.805227
LeftLeg 1.057159 -0.000000 -0.000000
LeftFoot -24.024270 30.290060 -32.793075
LeftToeBase 7.386244 -0.000000 -0.000000
Spine 16.949210 -49.900917 -20.568129
RightShoulder -10.992687 -31.615472 -21.753339
RightArm -8.792461 9.698954 64.580427
RightForeArm 23.707176 -0.000000 13.310828
RightHand 2.580668 -0.000000 -12.740137
RightHandThumb1 -24.326973 -0.000000 -32.862282
LeftShoulder -0.790003 21.574894 31.668798
LeftArm 95.255971 -3.705103 -43.094289
LeftForeArm 39.717952 -0.000000 31.950427
LeftHand -10.038967 -0.000000 -6.882188
LeftHandThumb1 -26.253704 0.000000 33.147579
Head 33.369600 44.984068 30.468593
293
root 1.959454 36.641323 5.183430 16.800245 -66.276664 -20.688706
RightUpLeg -7.098838 27.559647 2.902862
RightLeg 2.707877 -0.000000 -0.000000
RightFoot 4.209167 11.957528 20.111431
RightToeBase 15.170365 -0.000000 -0.000000
LeftUpLeg 22.808874 31.770792 17.789816
LeftLeg 1.101622 -0.000000 -0.000000
LeftFoot -24.053227 30.288518 -32.812504
LeftToeBase 7.368445 -0.000000 -0.000000
Spine 16.935621 -49.876283 -20.500104
RightShoulder -10.904335 -31.671584 -21.783751
RightArm -8.736791 9.665279 64.695089
RightForeArm 23.822157 -0.000000 13.328072
RightHand 2.591446 -0.000000 -12.909576
RightHandThumb1 -24.326973 -0.000000 -32.862282
LeftShoulder -0.702883 21.477848 31.698768
LeftArm 95.423055 -3.685678 -42.806238
LeftForeArm 39.558992 0.000000 31.996227
LeftHand -9.903286 -0.000000 -6.946822
LeftHandThumb1 -26.253704 0.000000 33.147579
Head 33.404491 45.080372 30.515804
